<?xml version="1.0" encoding="utf-8"?>
<!-- Svg Vector Icons : http://www.onlinewebfonts.com/icon -->
<!DOCTYPE svg PUBLIC "-//W3C//DTD SVG 1.1//EN" "http://www.w3.org/Graphics/SVG/1.1/DTD/svg11.dtd">
<svg version="1.1" xmlns="http://www.w3.org/2000/svg" xmlns:xlink="http://www.w3.org/1999/xlink" x="0px" y="0px" viewBox="0 0 1000 1000" enable-background="new 0 0 1000 1000" xml:space="preserve">
<metadata> Svg Vector Icons : http://www.onlinewebfonts.com/icon </metadata>
<g><path d="M500,990C229.4,990,10,770.6,10,500S229.4,10,500,10s490,219.4,490,490S770.6,990,500,990z M500,84.7C270.7,84.7,84.7,270.7,84.7,500S270.7,915.3,500,915.3S915.3,729.3,915.3,500S729.3,84.7,500,84.7z M764.3,764.3c-26.5,26.5-69.6,26.5-96.1,0L500,596.1L331.8,764.3c-26.5,26.5-69.6,26.5-96.1,0c-26.5-26.5-26.5-69.6,0-96.1L403.9,500L235.7,331.8c-26.5-26.5-26.5-69.6,0-96.1c26.5-26.5,69.6-26.5,96.1,0L500,403.9l168.2-168.2c26.5-26.5,69.6-26.5,96.1,0c26.5,26.5,26.5,69.6,0,96.1L596.1,500l168.2,168.2C790.9,694.8,790.9,737.8,764.3,764.3z" fill="#FF0000"/></g>
</svg>