<svg height="512pt" viewBox="0 0 512.00508 512" width="512pt" xmlns="http://www.w3.org/2000/svg"><path d="m110.933594 51.203125h25.601562c4.710938 0 8.53125-3.820313 8.53125-8.535156 0-4.710938-3.820312-8.53125-8.53125-8.53125h-25.601562c-4.714844 0-8.535156 3.820312-8.535156 8.53125 0 4.714843 3.820312 8.535156 8.535156 8.535156zm0 0"/><path d="m76.800781 34.136719c-19.460937-.003907-36.453125 13.160156-41.320312 32-1.175781 4.5625 1.566406 9.214843 6.128906 10.394531.699219.179688 1.417969.273438 2.140625.269531 3.90625.019531 7.328125-2.617187 8.304688-6.398437 2.914062-11.289063 13.085937-19.179688 24.746093-19.199219 4.710938 0 8.53125-3.820313 8.53125-8.535156 0-4.710938-3.820312-8.53125-8.53125-8.53125zm0 0"/><path d="m35.566406 380.207031c2.617188 3.917969 7.914063 4.976563 11.835938 2.363281l16.597656-11.09375c2.582031-1.726562 5.949219-1.726562 8.535156 0l7.574219 5.050782c8.320313 5.554687 19.167969 5.554687 27.488281 0l7.59375-5.050782c2.582032-1.726562 5.949219-1.726562 8.535156 0l7.574219 5.050782c8.320313 5.554687 19.167969 5.554687 27.488281 0l7.59375-5.050782c2.582032-1.726562 5.949219-1.726562 8.535157 0l16.585937 11.09375c3.921875 2.613282 9.222656 1.554688 11.835938-2.363281 2.617187-3.921875 1.558594-9.222656-2.363282-11.835937l-16.589843-11.09375c-8.316407-5.558594-19.164063-5.558594-27.484375 0l-7.59375 5.050781c-2.582032 1.726563-5.953125 1.726563-8.535156 0l-7.578126-5.050781c-8.316406-5.558594-19.164062-5.558594-27.484374 0l-7.59375 5.050781c-2.582032 1.726563-5.953126 1.726563-8.535157 0l-7.578125-5.050781c-8.316406-5.558594-19.164062-5.558594-27.484375 0l-16.597656 11.09375c-3.917969 2.617187-4.972656 7.914062-2.355469 11.835937zm0 0"/><path d="m64.46875 314.300781 16.597656-11.09375c2.582032-1.722656 5.949219-1.722656 8.535156 0l7.574219 5.054688c8.320313 5.554687 19.167969 5.554687 27.488281 0l7.59375-5.054688c2.582032-1.722656 5.949219-1.722656 8.535157 0l7.574219 5.054688c8.320312 5.554687 19.167968 5.554687 27.488281 0l7.59375-5.054688c2.582031-1.722656 5.949219-1.722656 8.535156 0l16.585937 11.09375c3.921876 2.617188 9.222657 1.558594 11.835938-2.363281 2.617188-3.921875 1.558594-9.21875-2.363281-11.835938l-16.589844-11.09375c-8.316406-5.554687-19.164063-5.554687-27.484375 0l-7.59375 5.054688c-2.582031 1.722656-5.953125 1.722656-8.535156 0l-7.578125-5.054688c-8.316407-5.554687-19.164063-5.554687-27.484375 0l-7.59375 5.054688c-2.582032 1.722656-5.953125 1.722656-8.535156 0l-7.578126-5.054688c-8.316406-5.554687-19.164062-5.554687-27.484374 0l-16.597657 11.09375c-3.921875 2.617188-4.980469 7.914063-2.363281 11.835938s7.914062 4.980469 11.835938 2.363281zm0 0"/><path d="m90.070312 254.570312 16.597657-11.09375c2.582031-1.726562 5.949219-1.726562 8.53125 0l7.578125 5.050782c8.320312 5.554687 19.167968 5.554687 27.484375 0l7.597656-5.050782c2.582031-1.726562 5.949219-1.726562 8.53125 0l7.578125 5.050782c8.320312 5.554687 19.167969 5.554687 27.484375 0l7.597656-5.050782c2.582031-1.726562 5.949219-1.726562 8.53125 0l16.589844 11.09375c3.921875 2.613282 9.21875 1.554688 11.835937-2.363281 2.617188-3.921875 1.558594-9.222656-2.363281-11.835937l-16.589843-11.09375c-8.320313-5.558594-19.164063-5.558594-27.484376 0l-7.597656 5.050781c-2.582031 1.726563-5.949218 1.726563-8.53125 0l-7.578125-5.050781c-8.320312-5.558594-19.164062-5.558594-27.484375 0l-7.597656 5.050781c-2.582031 1.726563-5.949219 1.726563-8.53125 0l-7.578125-5.050781c-8.320313-5.558594-19.167969-5.558594-27.484375 0l-16.597656 11.09375c-3.921875 2.613281-4.980469 7.914062-2.363282 11.835937 2.613282 3.917969 7.914063 4.976563 11.835938 2.363281zm0 0"/><path d="m0 392.535156c0 62.523438 52.90625 119.46875 110.933594 119.46875h247.464844c33.234374-.300781 63.566406-18.980468 78.789062-48.523437 11.742188-24.582031 7.722656-51.121094-11.332031-74.691407-14.015625-18.464843-35.609375-29.628906-58.777344-30.386718-.050781 0-.09375 0-.144531 0h-94.089844c4.304688-13.078125 9.914062-25.6875 16.742188-37.640625 23.238281-17.902344 47.652343-34.222657 73.082031-48.851563 102.800781-59.964844 145.917969-119.382812 147.710937-121.882812.164063-.277344.3125-.5625.445313-.855469.136719-.230469.261719-.46875.375-.714844.425781-.878906.695312-1.828125.800781-2.800781.003906-.046875.003906-.09375 0-.144531.03125-.960938-.097656-1.921875-.382812-2.839844-.042969-.136719 0-.265625-.050782-.394531-.054687-.125-.15625-.21875-.214844-.347656-.070312-.261719-.160156-.519532-.265624-.769532-.308594-.566406-.679688-1.09375-1.109376-1.578125-.066406-.085937-.117187-.1875-.1875-.265625-.667968-.695312-1.449218-1.269531-2.3125-1.707031-.230468-.117187-.46875-.203125-.714843-.304687-.699219-.296876-1.433594-.496094-2.1875-.589844-.253907 0-.484375-.085938-.75-.101563-.109375 0-.210938 0-.324219 0-26.574219-.15625-53.058594 3.066407-78.820312 9.589844 12.171874-21.125 18.730468-45.019531 19.054687-69.402344-.046875-42.394531-34.40625-76.7499998-76.800781-76.79687475h-290.132813c-42.417969 0-76.800781 34.38281275-76.800781 76.79687475 0 42.417969 34.382812 76.800781 76.800781 76.800781h9.683594c-7.75 17.183594-16.667969 33.8125-26.691406 49.777344-28.023438 46.890625-59.792969 100.050782-59.792969 189.15625zm412.585938 6.980469c18.824218 23.296875 15.359374 43.648437 9.199218 56.609375-12.457031 23.539062-36.753906 38.417969-63.386718 38.8125-4.152344-.046875-8.300782-.332031-12.421876-.855469-1.042968-.128906-2.082031-.230469-3.125-.382812-3.734374-.542969-7.4375-1.292969-11.09375-2.238281-1.117187-.289063-2.21875-.636719-3.328124-.960938-3.257813-.964844-6.457032-2.039062-9.554688-3.304688-.53125-.203124-1.066406-.382812-1.597656-.605468-3.917969-1.664063-7.71875-3.585938-11.382813-5.75l-.1875-.113282c-14.8125-8.59375-26.65625-21.496093-33.953125-36.992187h11.613282c.382812 0 .742187-.082031 1.125-.101563 11.617187-.40625 21.457031-8.691406 23.835937-20.070312.347656-1.757812.980469-3.414062 1.472656-5.066406.496094-1.65625.855469-3.457032 1.496094-5.121094.144531-.367188.375-.683594.527344-1.050781 7.359375-17.511719 22.589843-30.496094 41.046875-34.984375 1.160156-.292969 2.269531-.71875 3.464844-.933594 1.585937-.289062 3.242187-.296875 4.863281-.460938 1.902343-.175781 3.761719-.5 5.707031-.5 18.078125.726563 34.863281 9.570313 45.679688 24.070313zm-144.382813-24.046875h50.507813c-11.664063 9.414062-20.316407 22.039062-24.882813 36.316406-.179687.582032-.410156 1.136719-.582031 1.707032-.238282.796874-.398438 1.632812-.605469 2.441406-.347656 1.359375-.730469 2.695312-1.003906 4.078125-.816407 3.773437-4.105469 6.496093-7.964844 6.589843-.109375 0-.203125.050782-.3125.050782h-17.066406c0-.214844-.070313-.433594-.113281-.648438-.484376-2.457031-.851563-4.925781-1.132813-7.398437-.308594-2.917969-.511719-5.90625-.511719-9.003907 0-5.1875.324219-10.324218.851563-15.460937.09375-1.03125.203125-2.066406.324219-3.097656.582031-5.171875 1.382812-10.351563 2.492187-15.574219zm177.59375-216.6875c-65.835937 28.195312-124.621094 70.601562-172.140625 124.1875 29.792969-53.121094 77.765625-93.695312 135.089844-114.261719.355468-.164062.695312-.351562 1.023437-.5625 11.777344-3.960937 23.816407-7.085937 36.027344-9.363281zm-91.664063 98.382812c-28.40625 16.269532-55.542968 34.664063-81.175781 55.023438l-.648437.519531c33.074218-43.785156 94.71875-103.875 202.289062-147.628906-35.847656 35.953125-76.363281 66.925781-120.464844 92.085937zm-337.066406-180.363281c.039063-32.972656 26.757813-59.695312 59.734375-59.730469h241.910157l-.265626.238282c-2.046874 1.667968-4.011718 3.4375-5.878906 5.308594-.289062.289062-.535156.613281-.851562.902343-1.554688 1.613281-3.054688 3.269531-4.464844 5.011719-.578125.699219-1.089844 1.457031-1.636719 2.183594-1.050781 1.390625-2.074219 2.789062-3.03125 4.265625-.5625.855469-1.082031 1.757812-1.613281 2.652343-.851562 1.402344-1.644531 2.816407-2.386719 4.269532-.496093.964844-.957031 1.9375-1.417969 2.917968-.671874 1.46875-1.296874 2.960938-1.886718 4.480469-.390625 1.015625-.773438 2.03125-1.117188 3.0625-.535156 1.578125-.988281 3.191407-1.425781 4.8125-.261719 1.015625-.554687 2.023438-.785156 3.054688-.398438 1.800781-.679688 3.636719-.953125 5.480469-.128906.894531-.316406 1.773437-.410156 2.6875-2.945313 26.035156 7.675781 51.757812 28.125 68.136718h-241.910157c-32.976562-.035156-59.695312-26.757812-59.734375-59.734375zm87.960938 76.800781h261.90625c4.710937 0 8.53125-3.820312 8.53125-8.53125 0-4.714843-3.820313-8.535156-8.53125-8.535156-32.988282 0-59.734375-26.742187-59.734375-59.734375 0-32.988281 26.746093-59.730469 59.734375-59.730469 32.988281 0 59.734375 26.742188 59.734375 59.730469-.851563 27.636719-10.007813 54.375-26.265625 76.734375-3.414063 1.226563-6.71875 2.558594-10.019532 3.914063-121.464843 49.375-159.472656 172.433593-166.878906 201.558593l-.09375.382813c-.273437 1.085937-.503906 2.015625-.691406 2.808594l-.085938.359375c-.175781.785156-.332031 1.425781-.425781 1.878906v.050781c-.101562.449219-.167969.773438-.179687.851563-.03125.417968-.03125.835937 0 1.253906-.03125.425781-.03125.847656 0 1.273438v.460937c.125.488281.289062.964844.496094 1.421875.105468.367188.230468.726562.375 1.078125.363281.648437.808593 1.246094 1.324218 1.78125.761719 1.097656 1.875 1.90625 3.15625 2.289063h.101563l.121093.066406c.796876.265625 1.625.410156 2.464844.425781.085938 0 .171875.042969.257813.042969l.074219.035156c.113281 0 .222656-.042969.335937-.050781.675781-.019531 1.351563-.125 2.003906-.308594l.367188-.101563c.09375 0 .171875-.101562.265625-.136718s.125-.066406.1875-.09375c.46875-.179688.921875-.398438 1.355468-.65625.195313-.128906.394532-.257813.589844-.402344.195313-.144531.253906-.210938.382813-.324219.308593-.261719.59375-.546875.855469-.851562.203124-.230469.398437-.460938.585937-.71875.1875-.253907.230469-.253907.316406-.398438l.128907-.199219.195312-.296874.222656-.316407c.195313-.289062.441406-.648437.777344-1.109375l.3125-.425781c.394531-.546875.855469-1.160156 1.417969-1.886719l.375-.476562c.640625-.855469 1.375-1.707032 2.21875-2.765625l.308593-.359375c.945313-1.132813 2.003907-2.378906 3.214844-3.746094l.164063-.1875c2.917969-3.277344 6.691406-7.242188 11.273437-11.722656-2.007812 5.628906-3.671875 11.28125-5.121094 16.9375-1.007812 3.960937-1.859374 7.882812-2.558593 11.792968-.359375 1.917969-.625 3.855469-.921875 5.777344-.457032 2.917969-.835938 5.835938-1.144532 8.753906-.164062 1.570313-.332031 3.148438-.453124 4.726563-.347657 4.515625-.589844 9.082031-.589844 13.679687.019531 4.132813.285156 8.257813.804687 12.355469.222657 2 .570313 3.925781.902344 5.855469.273437 1.535156.574219 3.0625.921875 4.589844 5.832031 26.320312 22.417969 49 45.730469 62.535156h-184.890625c-48.246094 0-93.867188-49.769531-93.867188-102.402344 0-84.402344 30.480469-135.40625 57.378906-180.410156 11.894532-18.570312 22.128907-38.152344 30.582032-58.523438zm0 0"/></svg>