<?xml version="1.0" encoding="utf-8"?>
<!-- Svg Vector Icons : http://www.onlinewebfonts.com/icon -->
<!DOCTYPE svg PUBLIC "-//W3C//DTD SVG 1.1//EN" "http://www.w3.org/Graphics/SVG/1.1/DTD/svg11.dtd">
<svg version="1.1" xmlns="http://www.w3.org/2000/svg" xmlns:xlink="http://www.w3.org/1999/xlink" x="0px" y="0px" viewBox="0 0 1000 1000" enable-background="new 0 0 1000 1000" xml:space="preserve">
<metadata> Svg Vector Icons : http://www.onlinewebfonts.com/icon </metadata>
<g><path d="M500,10C229.3,10,10,229.3,10,500c0,270.7,219.3,490,490,490s490-219.3,490-490C990,229.3,770.5,10,500,10z M500,968.5C241.4,968.5,31.5,758.6,31.5,500C31.5,241.4,241.4,31.5,500,31.5c258.6,0,468.5,209.8,468.5,468.5C968.5,758.6,758.6,968.5,500,968.5z" fill="#00AC00"/><path d="M211.9,441.1l-89.2,118.3c0,0,193.3,156,257.9,266.2c0,0,214.8-355.6,466.3-512.4l-99.3-118.3c0,0-232.4,162.6-357.2,423.8C390.5,618.5,293.1,506.3,211.9,441.1z" fill="#00AC00"/></g>
</svg>