<svg version="1.1" id="Layer_1" xmlns="http://www.w3.org/2000/svg" viewBox="0 0 285.3 92.5">
<style type="text/css">
	.jtk-logo-plumb{fill:#6C7A88;}
	.jtk-logo-js{fill:#5BA9DD;}
</style>
<g>
	<path class="jtk-logo-plumb" d="M89.6,50.2v19.1H78V19.1h11.6v5.3c1.6-2.1,3.4-3.7,5.3-4.7c2-1,4.2-1.5,6.7-1.5c4.5,0,8.2,1.8,11.1,5.3
		c2.9,3.6,4.3,8.2,4.3,13.8c0,5.6-1.4,10.2-4.3,13.8c-2.9,3.6-6.6,5.3-11.1,5.3c-2.5,0-4.8-0.5-6.7-1.5C93,53.9,91.2,52.4,89.6,50.2
		z M97.4,26.7c-2.5,0-4.4,0.9-5.7,2.7c-1.3,1.8-2,4.5-2,7.9c0,3.4,0.7,6.1,2,7.9c1.3,1.8,3.2,2.7,5.7,2.7c2.5,0,4.4-0.9,5.7-2.7
		c1.3-1.8,2-4.5,2-7.9c0-3.5-0.7-6.1-2-7.9C101.8,27.6,99.9,26.7,97.4,26.7z"/>
	<path class="jtk-logo-plumb" d="M120.7,4.9h11.6v50.6h-11.6V4.9z"/>
	<path class="jtk-logo-plumb" d="M138.3,41.3V19.1H150v3.6c0,2,0,4.5,0,7.4c0,3,0,5,0,6c0,2.9,0.1,5,0.2,6.3c0.2,1.3,0.4,2.2,0.8,2.8
		c0.5,0.8,1.1,1.3,1.9,1.8c0.8,0.4,1.7,0.6,2.7,0.6c2.4,0,4.3-0.9,5.7-2.8c1.4-1.9,2.1-4.5,2.1-7.8v-18h11.6v36.4h-11.6v-5.3
		c-1.8,2.1-3.6,3.7-5.6,4.7c-2,1-4.1,1.5-6.5,1.5c-4.2,0-7.4-1.3-9.6-3.9C139.4,50,138.3,46.2,138.3,41.3z"/>
	<path class="jtk-logo-plumb" d="M214.9,25.1c1.5-2.3,3.2-4,5.3-5.2c2-1.2,4.3-1.8,6.7-1.8c4.2,0,7.4,1.3,9.6,3.9c2.2,2.6,3.3,6.3,3.3,11.3
		v22.2H228v-19c0-0.3,0-0.6,0-0.9c0-0.3,0-0.7,0-1.3c0-2.6-0.4-4.4-1.1-5.6c-0.8-1.2-2-1.7-3.7-1.7c-2.2,0-3.9,0.9-5.1,2.7
		c-1.2,1.8-1.8,4.5-1.9,7.9v17.9h-11.7v-19c0-4-0.3-6.6-1-7.8c-0.7-1.2-1.9-1.7-3.7-1.7c-2.2,0-4,0.9-5.2,2.7
		c-1.2,1.8-1.8,4.5-1.8,7.9v17.9h-11.7V19.1h11.7v5.3c1.4-2.1,3.1-3.6,4.9-4.7c1.9-1,3.9-1.6,6.1-1.6c2.5,0,4.7,0.6,6.7,1.8
		C212.4,21.2,213.9,22.9,214.9,25.1z"/>
	<path class="jtk-logo-plumb" d="M257.2,24.4c1.6-2.1,3.4-3.7,5.3-4.7c2-1,4.2-1.5,6.7-1.5c4.5,0,8.2,1.8,11.1,5.3c2.9,3.6,4.3,8.2,4.3,13.8
		c0,5.6-1.4,10.2-4.3,13.8s-6.6,5.3-11.1,5.3c-2.5,0-4.8-0.5-6.7-1.5c-2-1-3.7-2.6-5.3-4.7v5.3h-11.6V4.9h11.6V24.4z M265,48
		c2.5,0,4.4-0.9,5.7-2.7c1.3-1.8,2-4.5,2-7.9c0-3.5-0.7-6.1-2-7.9c-1.3-1.8-3.2-2.7-5.7-2.7s-4.4,0.9-5.7,2.7c-1.3,1.8-2,4.5-2,7.9
		c0,3.4,0.7,6.1,2,7.9C260.6,47.1,262.5,48,265,48z"/>
</g>
<path class="jtk-logo-js" d="M34.7,75.2c0,2.5-0.2,4.7-0.6,6.7c-0.4,2-1.1,3.7-2.1,5.1c-1,1.4-2.4,2.5-4.2,3.3c-1.7,0.8-4,1.2-6.7,1.2
	c-1.6,0-3.3-0.3-4.9-0.9l0.9-5.4c1.4,0.5,2.7,0.8,3.9,0.8c1.6,0,3-0.3,3.9-0.9c1-0.6,1.7-1.3,2.3-2.3c0.5-0.9,0.9-2,1-3.2
	c0.2-1.2,0.3-2.5,0.3-3.9V15.4h6.1V75.2z"/>
<path class="jtk-logo-js" d="M31.6,2c1.3,0,2.4,0.4,3.3,1.3c0.9,0.9,1.3,2,1.3,3.3c0,1.3-0.4,2.4-1.3,3.3c-0.9,0.9-2,1.3-3.3,1.3
	c-1.3,0-2.4-0.4-3.3-1.3C27.4,9,27,7.9,27,6.6c0-1.3,0.4-2.4,1.3-3.3C29.2,2.4,30.3,2,31.6,2 M31.6,0.9c-1.6,0-3,0.6-4.1,1.7
	c-1.1,1.1-1.7,2.5-1.7,4.1c0,1.6,0.6,3,1.7,4.1c1.1,1.1,2.5,1.7,4.1,1.7c1.6,0,3-0.6,4.1-1.7c1.1-1.1,1.7-2.5,1.7-4.1
	c0-1.6-0.6-3-1.7-4.1C34.5,1.4,33.2,0.9,31.6,0.9L31.6,0.9z"/>
<path class="jtk-logo-js" d="M43,54.8c1.3,2.5,3.2,4.5,5.7,5.8c2.5,1.3,5.2,2,8,2c1.3,0,2.6-0.2,3.9-0.6c1.3-0.4,2.5-1,3.5-1.7
	c1-0.8,1.9-1.7,2.5-2.7c0.6-1.1,1-2.3,1-3.6c0-2.2-0.7-3.8-2.1-4.9c-1.4-1.1-3.1-1.9-5.2-2.6c-2-0.6-4.3-1.1-6.8-1.6
	c-2.5-0.4-4.7-1.1-6.8-2c-2-0.9-3.8-2.2-5.2-3.8c-1.4-1.6-2.1-4-2.1-7c0-2.3,0.5-4.3,1.4-6c1-1.7,2.2-3.1,3.7-4.3
	c1.5-1.1,3.3-2,5.2-2.5c1.9-0.5,3.9-0.8,5.8-0.8c3.9,0,7.3,0.7,10.1,2.2c2.8,1.4,5,3.7,6.6,6.8l-5.5,3.3c-1.2-2.2-2.6-3.8-4.4-5
	c-1.7-1.1-4-1.7-6.8-1.7c-1.1,0-2.2,0.2-3.4,0.5C51,24.7,50,25.2,49,25.8c-1,0.6-1.8,1.4-2.4,2.4c-0.7,1-1,2-1,3.3
	c0,2.1,0.7,3.7,2.1,4.7c1.4,1,3.1,1.8,5.2,2.4c2,0.6,4.3,1.1,6.8,1.5c2.5,0.4,4.7,1.1,6.8,2c2.1,0.9,3.8,2.3,5.2,4
	c1.4,1.7,2.1,4.2,2.1,7.4c0,2.5-0.5,4.6-1.4,6.4c-0.9,1.8-2.2,3.3-3.8,4.6c-1.6,1.2-3.4,2.2-5.5,2.8c-2.1,0.6-4.2,0.9-6.5,0.9
	c-4.1,0-7.8-0.8-11.2-2.4c-3.4-1.6-6-4-7.8-7.3L43,54.8z"/>
<path class="jtk-logo-js" d="M8.7,81.6c1.3,0,2.4,0.4,3.3,1.3c0.9,0.9,1.3,2,1.3,3.3c0,1.3-0.4,2.4-1.3,3.3c-0.9,0.9-2,1.3-3.3,1.3
	c-1.3,0-2.4-0.4-3.3-1.3c-0.9-0.9-1.3-2-1.3-3.3c0-1.3,0.4-2.4,1.3-3.3C6.3,82,7.4,81.6,8.7,81.6 M8.7,80.4c-1.6,0-3,0.6-4.1,1.7
	C3.6,83.2,3,84.6,3,86.2c0,1.6,0.6,3,1.7,4.1c1.1,1.1,2.5,1.7,4.1,1.7c1.6,0,3-0.6,4.1-1.7c1.1-1.1,1.7-2.5,1.7-4.1
	c0-1.6-0.6-3-1.7-4.1C11.7,81,10.3,80.4,8.7,80.4L8.7,80.4z"/>
</svg>
